<?xml version="1.0" encoding="UTF-8"?>
<svg id="Layer_1" xmlns="http://www.w3.org/2000/svg" version="1.1" viewBox="0 0 1358.4 944.4">
  <!-- Generator: Adobe Illustrator 29.0.1, SVG Export Plug-In . SVG Version: 2.1.0 Build 192)  -->
  <defs>
    <style>
      .st0 {
        fill: #f30;
      }

      .st0, .st1, .st2, .st3, .st4, .st5, .st6, .st7, .st8, .st9, .st10, .st11, .st12, .st13, .st14, .st15, .st16 {
        stroke-miterlimit: 10;
      }

      .st0, .st2, .st3, .st6, .st8, .st9, .st13, .st14, .st15, .st16 {
        stroke: #000;
      }

      .st0, .st3, .st6, .st9 {
        stroke-width: .9px;
      }

      .st1 {
        fill: #fff;
        stroke: #7e7f7c;
        stroke-width: 2px;
      }

      .st2 {
        stroke-width: 1px;
      }

      .st2, .st10 {
        fill: #969;
      }

      .st3 {
        fill: #ccf;
      }

      .st4 {
        stroke: #268403;
      }

      .st4, .st9 {
        fill: #3c0;
      }

      .st4, .st10 {
        stroke-width: 1.2px;
      }

      .st5 {
        fill: #ac27af;
      }

      .st5, .st11, .st12 {
        opacity: 0;
        stroke: #891b8c;
        stroke-width: 1.1px;
      }

      .st17 {
        font-family: HelveticaNeue, 'Helvetica Neue';
        font-size: 21px;
      }

      .st6 {
        fill: #c3c;
      }

      .st7 {
        fill: #ddffb6;
        stroke: #9ebf73;
      }

      .st8 {
        stroke-width: 1.6px;
      }

      .st8, .st13, .st14, .st15, .st16 {
        fill: none;
      }

      .st10 {
        stroke: #794c7a;
      }

      .st11 {
        fill: #dc4fe0;
      }

      .st12 {
        fill: #d444d8;
      }

      .st13 {
        stroke-width: .6px;
      }

      .st14 {
        stroke-width: .6px;
      }

      .st15 {
        stroke-width: .6px;
      }

      .st16 {
        stroke-width: .7px;
      }

      .st18 {
        opacity: .1;
      }

      .st19 {
        fill: #55b947;
      }
    </style>
  </defs>
  <path class="st7" d="M954.4,728.4c23.4,13.5,50.4,24.8,81.3,24.8s75.4-12.4,99-33.3c20.3-17.9,28.8-48.3,28.8-75.3s-5.4-60.5-25.2-74c-27.8-18.9-60.5-34.7-102.6-34.7s-56.3,8.4-77.8,22.5c0,0-15.7,10.8-30,20.1s-29.2,20.8-76.9,21.7c-47.7.8-140-3.4-183.8-13.5s-75.8-22-97.6-24.8c-21.9-2.8-54.4-1.1-72.7,1.7-18.2,2.8-63.1,14.1-88.4,17.2-25.3,3.1-186.3,20.6-209.9,23.4s-39,12.1-40.1,28.5c-1.1,16.3,6.5,26.5,33.1,31.3s181.3,28.5,208.5,33.8c27.2,5.4,79.1,18.9,106.1,21.1s58.9,7.3,89.5-4.5c30.6-11.8,69.6-22.5,141.4-24.5s150.7-6.3,180.1,13c17.7,11.6,26.4,19.4,37.1,25.7Z"/>
  <path class="st1" d="M954.4,728.4c23.4,13.5,50.4,24.8,81.3,24.8s75.4-12.4,99-33.3c20.3-17.9,28.8-48.3,28.8-75.3s-5.4-60.5-25.2-74c-27.8-18.9-60.5-34.7-102.6-34.7s-56.3,8.4-77.8,22.5c0,0-15.7,10.8-30,20.1s-29.2,20.8-76.9,21.7c-47.7.8-140-3.4-183.8-13.5s-75.8-22-97.6-24.8c-21.9-2.8-54.4-1.1-72.7,1.7-18.2,2.8-63.1,14.1-88.4,17.2-25.3,3.1-186.3,20.6-209.9,23.4s-39,12.1-40.1,28.5c-1.1,16.3,6.5,26.5,33.1,31.3s181.3,28.5,208.5,33.8c27.2,5.4,79.1,18.9,106.1,21.1s58.9,7.3,89.5-4.5c30.6-11.8,69.6-22.5,141.4-24.5s150.7-6.3,180.1,13c17.7,11.6,26.4,19.4,37.1,25.7Z"/>
  <g class="st18">
    <path class="st7" d="M1091.1,555.7c-4.5-1.9-14.2-1.9-14.2-1.9-17.6-3.4-49.6-5.1-49.6-5.1-1.7-6.4-8.2-9.4-8.2-9.4-2.2-2.1,16.7-3.5,16.7-3.5-29.3,0-56.3,8.4-77.8,22.5,0,0-15.7,10.8-30,20.1-4.9,3.2-9.8,6.6-16.1,9.8.1,0,.3-.1.4-.2,0,0,17,4.2,13.4,60.9-1.4,22.8-9.5,36.7-15.4,46.7,0,0-2.2,2.6-3.5,1.9-.6-.3,6.9,2.8,10.4,5.2,17.7,11.6,26.4,19.4,37.1,25.7,18,10.4,38.1,19.5,60.5,23.1l4.7-1.9c17.2,4.7,55.6-2.1,63.8-6.8,2.7-1.6.6-3,.6-3-1.1-1.3-4.9.9-4.9.9-6.2,2.1-61.9,13.1-53.5,3.4,8.4-9.8,12.5-27.8,12.5-27.8,3.7.6,9.4.9,9.4.9,16.1,0,14.6-3.4,14.6-3.4.2-3-13.7-.4-13.7-.4-9,0-9.2-1.7-9.2-1.7,4.3-9,2.6-27,2.6-27-.7-8.3,1.5-7.9,1.5-7.9,8.6.9,21,.6,21,.6,4.3,0,7.3.8,7.3.8,7.1,3,5.4-5.6,5.4-5.6-.6-5.1-6.7-.8-6.7-.8-6.2,1.7-15.2,1.5-15.2,1.5-12.7-.4-11.8-5.3-11.8-5.3,3.6-53.7-11.6-110.1-11.6-110.1-1.1-3,7.3-3.8,7.3-3.8,5.1-1.3,32.7,2.4,32.7,2.4,9.2,1.3,15.7,5.3,15.7,5.3,6.2,2.1,8.6-.8,8.6-.8.6-2.3-5.1-5.4-5.1-5.4Z"/>
    <path class="st4" d="M1138.4,570.5c-27.8-18.9-60.5-34.7-102.6-34.7,0,0-18.9,1.4-16.7,3.5,0,0,6.5,3,8.2,9.4,0,0,32,1.7,49.6,5.1,0,0,9.7,0,14.2,1.9,0,0,5.6,3.2,5.1,5.4,0,0-2.4,2.8-8.6.8,0,0-6.5-3.9-15.7-5.3,0,0-27.7-3.8-32.7-2.4,0,0-8.4.8-7.3,3.8,0,0,15.2,56.4,11.6,110.1,0,0-.9,4.9,11.8,5.3,0,0,9,.2,15.2-1.5,0,0,6.2-4.3,6.7.8,0,0,1.7,8.6-5.4,5.6,0,0-3-.8-7.3-.8,0,0-12.3.4-21-.6,0,0-2.2-.4-1.5,7.9,0,0,1.7,18-2.6,27,0,0,.2,1.7,9.2,1.7,0,0,13.8-2.6,13.7.4,0,0,1.5,3.4-14.6,3.4,0,0-5.6-.4-9.4-.9,0,0-4.1,18-12.5,27.8-8.4,9.8,47.3-1.3,53.5-3.4,0,0,3.7-2.3,4.9-.9,0,0,2.2,1.4-.6,3-8.1,4.7-46.6,11.5-63.8,6.8l-4.7,1.9c6.7,1.1,13.7,1.7,20.8,1.7,37.3,0,72.7-11.5,96.3-31l3-4c16.1-14.7,18-71.6,18-71.6,1.9-56.7-14.6-76.1-14.6-76.1Z"/>
    <path class="st4" d="M912.3,588c-12.2,6.2-29.4,11.6-61.2,12.1-47.7.8-140-3.4-183.8-13.5-32.1-7.4-57.8-15.8-77.9-20.8,0,0-11.3,28.1-11.8,74.2,0,0,0,37.9,10.1,73.6l1.8,2.7c2.1-.7,4.1-1.4,6.2-2.2,30.6-11.8,69.6-22.5,141.4-24.5,63.4-1.7,132.2-5.3,167.8,7.1.7.2,1.3.4,1.9.7,1.3.7,3.5-1.9,3.5-1.9,5.9-10,13.9-23.9,15.4-46.7,3.6-56.7-13.4-60.9-13.4-60.9Z"/>
    <path class="st7" d="M587.7,713.7c-10.1-35.7-10.1-73.6-10.1-73.6.6-46.2,11.8-74.2,11.8-74.2-7.3-1.8-13.9-3.2-19.8-4-21.9-2.8-54.4-1.1-72.7,1.7-11.4,1.8-50.2,10.3-48.3,9.9l-.9,3.1c-2.7,7.2-7.7,37.5-6.5,66.1,1.3,33.8,9,66,9,66,20.8,4.6,41.9,8.9,56,10.1,25.1,2.1,54.6,6.7,83.3-2.3l-1.8-2.7Z"/>
    <path class="st7" d="M236.3,602.2c4-.7,17.4-1.5,30.6-3.1,13.2-1.7,88.9-9,96.8-9.9,7.9-.9,5.4-3.9,5.4-3.9-57,6.3-152.7,16.8-170.4,18.9-1.6.2-3.1.4-4.6.7l-1.1,1.7c-2.4,3.5-2.8,9.7-2.8,9.7-6,31.5,3.6,48,3.6,48,7.9,1.4,23.1,3.8,41.8,6.8l-1.1-2-.9-1.1c-.7-1.5.7-1,.7-1,78.9,7.9,121.2,11.1,126.5,11.5,5.2.4,4.5-2.4,4.5-4.1s-2.1-3.9-2.1-3.9l-13.1.6c-25.8.2-68.7-5.3-68.7-5.3-23.9-2.6-51.5-5.1-51.5-5.1-1.6-4.7-2.3-9.1-2.3-9.1-2.2-9-1.9-20.8.6-30.9,2.4-10.1,8.1-18.2,8.1-18.2Z"/>
    <path class="st4" d="M441.2,642.7c-1.1-28.6,3.8-58.9,6.5-66.1l.9-3.1c-14.5,3.1-29.2,5.9-40.1,7.3-6.6.8-40.7,4.6-39.5,4.5,0,0,2.5,3-5.4,3.9-7.9.9-83.6,8.3-96.8,9.9-13.2,1.7-26.6,2.4-30.6,3.1,0,0-5.7,8.1-8.1,18.2-2.4,10.1-2.8,21.9-.6,30.9,0,0,.7,4.5,2.3,9.1,0,0,27.6,2.5,51.5,5.1,0,0,42.8,5.4,68.7,5.3l13.1-.6s2.1,2.3,2.1,3.9.7,4.5-4.5,4.1c-5.2-.4-47.5-3.6-126.5-11.5,0,0-1.4-.4-.7,1l.9,1.1,1.1,2c56.3,9,144.6,22.7,164.6,26.6,12.9,2.5,31.3,6.9,50,11,0,0-7.7-32.2-9-66Z"/>
    <path class="st4" d="M190.1,616.2s.4-6.2,2.8-9.7l1.1-1.7c-8.4,1.4-15.7,3.7-21.3,6.9-.4.2-.8.5-1.1.7-.2.3-6.4,10.5-5.4,24.3,0,0,2,16,3.9,18.4l1.9,2.7c.4.2.8.4,1.2.6,4.8,2.3,10.9,4.1,18.5,5.5.6.1,1.3.2,2.1.4,0,0-9.7-16.4-3.6-48Z"/>
    <path class="st19" d="M1138.4,570.5c-27.8-18.9-60.5-34.7-102.6-34.7,0,0-18.9,1.4-16.7,3.5,0,0,6.5,3,8.2,9.4,0,0,32,1.7,49.6,5.1,0,0,9.7,0,14.2,1.9,0,0,5.6,3.2,5.1,5.4,0,0-2.4,2.8-8.6.8,0,0-6.5-3.9-15.7-5.3,0,0-27.7-3.8-32.7-2.4,0,0-8.4.8-7.3,3.8,0,0,15.2,56.4,11.6,110.1,0,0-.9,4.9,11.8,5.3,0,0,9,.2,15.2-1.5,0,0,6.2-4.3,6.7.8,0,0,1.7,8.6-5.4,5.6,0,0-3-.8-7.3-.8,0,0-12.3.4-21-.6,0,0-2.2-.4-1.5,7.9,0,0,1.7,18-2.6,27,0,0,.2,1.7,9.2,1.7,0,0,13.8-2.6,13.7.4,0,0,1.5,3.4-14.6,3.4,0,0-5.6-.4-9.4-.9,0,0-4.1,18-12.5,27.8-8.4,9.8,47.3-1.3,53.5-3.4,0,0,3.7-2.3,4.9-.9,0,0,2.2,1.4-.6,3-8.1,4.7-46.6,11.5-63.8,6.8l-4.7,1.9c6.7,1.1,13.7,1.7,20.8,1.7,37.3,0,72.7-11.5,96.3-31l3-4c16.1-14.7,18-71.6,18-71.6,1.9-56.7-14.6-76.1-14.6-76.1Z"/>
    <path class="st19" d="M912.3,588c-12.2,6.2-29.4,11.6-61.2,12.1-47.7.8-140-3.4-183.8-13.5-32.1-7.4-57.8-15.8-77.9-20.8,0,0-11.3,28.1-11.8,74.2,0,0,0,37.9,10.1,73.6l1.8,2.7c2.1-.7,4.1-1.4,6.2-2.2,30.6-11.8,69.6-22.5,141.4-24.5,63.4-1.7,132.2-5.3,167.8,7.1.7.2,1.3.4,1.9.7,1.3.7,3.5-1.9,3.5-1.9,5.9-10,13.9-23.9,15.4-46.7,3.6-56.7-13.4-60.9-13.4-60.9Z"/>
    <path class="st19" d="M441.2,642.7c-1.1-28.6,3.8-58.9,6.5-66.1l.9-3.1c-14.5,3.1-29.2,5.9-40.1,7.3-6.6.8-40.7,4.6-39.5,4.5,0,0,2.5,3-5.4,3.9-7.9.9-83.6,8.3-96.8,9.9-13.2,1.7-26.6,2.4-30.6,3.1,0,0-5.7,8.1-8.1,18.2-2.4,10.1-2.8,21.9-.6,30.9,0,0,.7,4.5,2.3,9.1,0,0,27.6,2.5,51.5,5.1,0,0,42.8,5.4,68.7,5.3l13.1-.6s2.1,2.3,2.1,3.9.7,4.5-4.5,4.1c-5.2-.4-47.5-3.6-126.5-11.5,0,0-1.4-.4-.7,1l.9,1.1,1.1,2c56.3,9,144.6,22.7,164.6,26.6,12.9,2.5,31.3,6.9,50,11,0,0-7.7-32.2-9-66Z"/>
    <path class="st19" d="M190.1,616.2s.4-6.2,2.8-9.7l1.1-1.7c-8.4,1.4-15.7,3.7-21.3,6.9-.4.2-.8.5-1.1.7-.2.3-6.4,10.5-5.4,24.3,0,0,2,16,3.9,18.4l1.9,2.7c.4.2.8.4,1.2.6,4.8,2.3,10.9,4.1,18.5,5.5.6.1,1.3.2,2.1.4,0,0-9.7-16.4-3.6-48Z"/>
    <path class="st10" d="M171.9,657.7c-10.8-5.7-14.2-14-13.4-25.2.6-8.7,5.2-15.4,13-20.2,0,0-6.4,10.3-5.4,24.3,0,0,2,16,3.9,18.4l1.9,2.7Z"/>
  </g>
  <path class="st12" d="M925.8,636.6c.9,0,1.8,0,2.7,0,0,0,101.3,1.5,222.5,1.5.7,0,1.4-.6,1.5-1.3.4-4.2,1.5-18.3-1.7-34.9,0-.4-.3-.7-.6-.9-6-3.9-64-38.8-194.4-1-1.7.5-3.4,1-5.2,1.5-2.7.8-9.2,3.2-12.2,4.4-2.5,1-6.4,2.2-12.1,3.4s-1.2.9-1.1,1.6c.6,4.1,2.2,16.7,1.1,24.1,0,.1,0,.2,0,.3l-.4,1.2Z"/>
  <path class="st11" d="M577.3,632.1c-24.2-1-46.8-2.1-46.8-2.1-18.9-1.2-58.2-3.6-83.6-5.2-2.1-.1-4.1-.3-6-.4-10.6-.6-17.6-1.1-17.6-1.1-110.1-4.9-240,2.6-255.6,3.5-.8,0-1.6-.6-1.5-1.5.2-13,7-12.5,7-12.5,62.7-3,240.9-14.4,269.8-16.2,2.6-.2,4.2-.3,4.4-.3s0,0,0,0c60.6-7.4,104.5-5.3,132-1.7.8.1,1.4.9,1.2,1.7-.7,4.3-2.9,17.7-3.5,34.3v1.3Z"/>
  <path class="st5" d="M925.8,636.6c-46.6-1.4-158.4-2.3-158.4-2.3-53.3.9-146.5-.5-146.5-.5-10.7-.4-27-1.1-42-1.7s-1-.3-1.2-.8h0c-.1-.2-.2-.5-.2-.7.8-17.9,2.8-30.1,3.5-34.1s.9-1.3,1.6-1.2c19.4,2.8,30.6,6.1,31.5,6.4s0,0,.1,0c80.8,17,138.6,12.7,224.4,13.7,43.6.5,69.7-2.5,84.8-5.4s1.6.4,1.7,1.2c.6,3.8,2.1,14.3,1,24.2,0,.1,0,.3-.1.4l-.3.8Z"/>
  <path class="st7" d="M954.4,342.1c23.4,13.5,50.4,24.8,81.3,24.8s75.4-12.4,99-33.3c20.3-17.9,28.8-48.3,28.8-75.3s-5.4-60.5-25.2-74c-27.8-18.9-60.5-34.7-102.6-34.7-29.3,0-56.3,8.4-77.8,22.5,0,0-15.7,10.8-30,20.1s-29.2,20.8-76.9,21.7c-47.7.8-140-3.4-183.8-13.5-43.8-10.1-75.8-22-97.6-24.8-21.9-2.8-54.4-1.1-72.7,1.7-18.2,2.8-63.1,14.1-88.4,17.2-25.3,3.1-186.3,20.6-209.9,23.4-23.6,2.8-39,12.1-40.1,28.5-1.1,16.3,6.5,26.5,33.1,31.3s181.3,28.5,208.5,33.8c27.2,5.4,79.1,18.9,106.1,21.1,26.9,2.3,58.9,7.3,89.5-4.5,30.6-11.8,69.6-22.5,141.4-24.5s150.7-6.3,180.1,13c17.7,11.6,26.4,19.4,37.1,25.7Z"/>
  <path class="st1" d="M954.4,342.1c23.4,13.5,50.4,24.8,81.3,24.8s75.4-12.4,99-33.3c20.3-17.9,28.8-48.3,28.8-75.3s-5.4-60.5-25.2-74c-27.8-18.9-60.5-34.7-102.6-34.7-29.3,0-56.3,8.4-77.8,22.5,0,0-15.7,10.8-30,20.1s-29.2,20.8-76.9,21.7c-47.7.8-140-3.4-183.8-13.5-43.8-10.1-75.8-22-97.6-24.8-21.9-2.8-54.4-1.1-72.7,1.7-18.2,2.8-63.1,14.1-88.4,17.2-25.3,3.1-186.3,20.6-209.9,23.4-23.6,2.8-39,12.1-40.1,28.5-1.1,16.3,6.5,26.5,33.1,31.3s181.3,28.5,208.5,33.8c27.2,5.4,79.1,18.9,106.1,21.1,26.9,2.3,58.9,7.3,89.5-4.5,30.6-11.8,69.6-22.5,141.4-24.5s150.7-6.3,180.1,13c17.7,11.6,26.4,19.4,37.1,25.7Z"/>
  <g class="st18">
    <path class="st7" d="M1091.1,169.5c-4.5-1.9-14.2-1.9-14.2-1.9-17.6-3.4-49.6-5.1-49.6-5.1-1.7-6.4-8.2-9.4-8.2-9.4-2.2-2.1,16.7-3.5,16.7-3.5-29.3,0-56.3,8.4-77.8,22.5,0,0-15.7,10.8-30,20.1-4.9,3.2-9.8,6.6-16.1,9.8.1,0,.3-.1.4-.2,0,0,17,4.2,13.4,60.9-1.4,22.8-9.5,36.7-15.4,46.7,0,0-2.2,2.6-3.5,1.9-.6-.3,6.9,2.8,10.4,5.2,17.7,11.6,26.4,19.4,37.1,25.7,18,10.4,38.1,19.5,60.5,23.1l4.7-1.9c17.2,4.7,55.6-2.1,63.8-6.8,2.7-1.6.6-3,.6-3-1.1-1.3-4.9.9-4.9.9-6.2,2.1-61.9,13.1-53.5,3.4,8.4-9.8,12.5-27.8,12.5-27.8,3.7.6,9.4.9,9.4.9,16.1,0,14.6-3.4,14.6-3.4.2-3-13.7-.4-13.7-.4-9,0-9.2-1.7-9.2-1.7,4.3-9,2.6-27,2.6-27-.7-8.3,1.5-7.9,1.5-7.9,8.6.9,21,.6,21,.6,4.3,0,7.3.8,7.3.8,7.1,3,5.4-5.6,5.4-5.6-.6-5.1-6.7-.8-6.7-.8-6.2,1.7-15.2,1.5-15.2,1.5-12.7-.4-11.8-5.3-11.8-5.3,3.6-53.7-11.6-110.1-11.6-110.1-1.1-3,7.3-3.8,7.3-3.8,5.1-1.3,32.7,2.4,32.7,2.4,9.2,1.3,15.7,5.3,15.7,5.3,6.2,2.1,8.6-.8,8.6-.8.6-2.3-5.1-5.4-5.1-5.4Z"/>
    <path class="st4" d="M1138.4,184.3c-27.8-18.9-60.5-34.7-102.6-34.7,0,0-18.9,1.4-16.7,3.5,0,0,6.5,3,8.2,9.4,0,0,32,1.7,49.6,5.1,0,0,9.7,0,14.2,1.9,0,0,5.6,3.2,5.1,5.4,0,0-2.4,2.8-8.6.8,0,0-6.5-3.9-15.7-5.3,0,0-27.7-3.8-32.7-2.4,0,0-8.4.8-7.3,3.8,0,0,15.2,56.4,11.6,110.1,0,0-.9,4.9,11.8,5.3,0,0,9,.2,15.2-1.5,0,0,6.2-4.3,6.7.8,0,0,1.7,8.6-5.4,5.6,0,0-3-.8-7.3-.8,0,0-12.3.4-21-.6,0,0-2.2-.4-1.5,7.9,0,0,1.7,18-2.6,27,0,0,.2,1.7,9.2,1.7,0,0,13.8-2.6,13.7.4,0,0,1.5,3.4-14.6,3.4,0,0-5.6-.4-9.4-.9,0,0-4.1,18-12.5,27.8-8.4,9.8,47.3-1.3,53.5-3.4,0,0,3.7-2.3,4.9-.9,0,0,2.2,1.4-.6,3-8.1,4.7-46.6,11.5-63.8,6.8l-4.7,1.9c6.7,1.1,13.7,1.7,20.8,1.7,37.3,0,72.7-11.5,96.3-31l3-4c16.1-14.7,18-71.6,18-71.6,1.9-56.7-14.6-76.1-14.6-76.1Z"/>
    <path class="st4" d="M912.3,201.7c-12.2,6.2-29.4,11.6-61.2,12.1-47.7.8-140-3.4-183.8-13.5-32.1-7.4-57.8-15.8-77.9-20.8,0,0-11.3,28.1-11.8,74.2,0,0,0,37.9,10.1,73.6l1.8,2.7c2.1-.7,4.1-1.4,6.2-2.2,30.6-11.8,69.6-22.5,141.4-24.5,63.4-1.7,132.2-5.3,167.8,7.1.7.2,1.3.4,1.9.7,1.3.7,3.5-1.9,3.5-1.9,5.9-10,13.9-23.9,15.4-46.7,3.6-56.7-13.4-60.9-13.4-60.9Z"/>
    <path class="st7" d="M587.7,327.4c-10.1-35.7-10.1-73.6-10.1-73.6.6-46.2,11.8-74.2,11.8-74.2-7.3-1.8-13.9-3.2-19.8-4-21.9-2.8-54.4-1.1-72.7,1.7-11.4,1.8-50.2,10.3-48.3,9.9l-.9,3.1c-2.7,7.2-7.7,37.5-6.5,66.1,1.3,33.8,9,66,9,66,20.8,4.6,41.9,8.9,56,10.1,25.1,2.1,54.6,6.7,83.3-2.3l-1.8-2.7Z"/>
    <path class="st7" d="M236.3,215.9c4-.7,17.4-1.5,30.6-3.1,13.2-1.7,88.9-9,96.8-9.9,7.9-.9,5.4-3.9,5.4-3.9-57,6.3-152.7,16.8-170.4,18.9-1.6.2-3.1.4-4.6.7l-1.1,1.7c-2.4,3.5-2.8,9.7-2.8,9.7-6,31.5,3.6,48,3.6,48,7.9,1.4,23.1,3.8,41.8,6.8l-1.1-2-.9-1.1c-.7-1.5.7-1,.7-1,78.9,7.9,121.2,11.1,126.5,11.5,5.2.4,4.5-2.4,4.5-4.1s-2.1-3.9-2.1-3.9l-13.1.6c-25.8.2-68.7-5.3-68.7-5.3-23.9-2.6-51.5-5.1-51.5-5.1-1.6-4.7-2.3-9.1-2.3-9.1-2.2-9-1.9-20.8.6-30.9,2.4-10.1,8.1-18.2,8.1-18.2Z"/>
    <path class="st4" d="M441.2,256.4c-1.1-28.6,3.8-58.9,6.5-66.1l.9-3.1c-14.5,3.1-29.2,5.9-40.1,7.3-6.6.8-40.7,4.6-39.5,4.5,0,0,2.5,3-5.4,3.9-7.9.9-83.6,8.3-96.8,9.9-13.2,1.7-26.6,2.4-30.6,3.1,0,0-5.7,8.1-8.1,18.2-2.4,10.1-2.8,21.9-.6,30.9,0,0,.7,4.5,2.3,9.1,0,0,27.6,2.5,51.5,5.1,0,0,42.8,5.4,68.7,5.3l13.1-.6s2.1,2.3,2.1,3.9.7,4.5-4.5,4.1c-5.2-.4-47.5-3.6-126.5-11.5,0,0-1.4-.4-.7,1l.9,1.1,1.1,2c56.3,9,144.6,22.7,164.6,26.6,12.9,2.5,31.3,6.9,50,11,0,0-7.7-32.2-9-66Z"/>
    <path class="st4" d="M190.1,230s.4-6.2,2.8-9.7l1.1-1.7c-8.4,1.4-15.7,3.7-21.3,6.9-.4.2-.8.5-1.1.7-.2.3-6.4,10.5-5.4,24.3,0,0,2,16,3.9,18.4l1.9,2.7c.4.2.8.4,1.2.6,4.8,2.3,10.9,4.1,18.5,5.5.6.1,1.3.2,2.1.4,0,0-9.7-16.4-3.6-48Z"/>
    <path class="st19" d="M1138.4,184.3c-27.8-18.9-60.5-34.7-102.6-34.7,0,0-18.9,1.4-16.7,3.5,0,0,6.5,3,8.2,9.4,0,0,32,1.7,49.6,5.1,0,0,9.7,0,14.2,1.9,0,0,5.6,3.2,5.1,5.4,0,0-2.4,2.8-8.6.8,0,0-6.5-3.9-15.7-5.3,0,0-27.7-3.8-32.7-2.4,0,0-8.4.8-7.3,3.8,0,0,15.2,56.4,11.6,110.1,0,0-.9,4.9,11.8,5.3,0,0,9,.2,15.2-1.5,0,0,6.2-4.3,6.7.8,0,0,1.7,8.6-5.4,5.6,0,0-3-.8-7.3-.8,0,0-12.3.4-21-.6,0,0-2.2-.4-1.5,7.9,0,0,1.7,18-2.6,27,0,0,.2,1.7,9.2,1.7,0,0,13.8-2.6,13.7.4,0,0,1.5,3.4-14.6,3.4,0,0-5.6-.4-9.4-.9,0,0-4.1,18-12.5,27.8-8.4,9.8,47.3-1.3,53.5-3.4,0,0,3.7-2.3,4.9-.9,0,0,2.2,1.4-.6,3-8.1,4.7-46.6,11.5-63.8,6.8l-4.7,1.9c6.7,1.1,13.7,1.7,20.8,1.7,37.3,0,72.7-11.5,96.3-31l3-4c16.1-14.7,18-71.6,18-71.6,1.9-56.7-14.6-76.1-14.6-76.1Z"/>
    <path class="st19" d="M912.3,201.7c-12.2,6.2-29.4,11.6-61.2,12.1-47.7.8-140-3.4-183.8-13.5-32.1-7.4-57.8-15.8-77.9-20.8,0,0-11.3,28.1-11.8,74.2,0,0,0,37.9,10.1,73.6l1.8,2.7c2.1-.7,4.1-1.4,6.2-2.2,30.6-11.8,69.6-22.5,141.4-24.5,63.4-1.7,132.2-5.3,167.8,7.1.7.2,1.3.4,1.9.7,1.3.7,3.5-1.9,3.5-1.9,5.9-10,13.9-23.9,15.4-46.7,3.6-56.7-13.4-60.9-13.4-60.9Z"/>
    <path class="st19" d="M441.2,256.4c-1.1-28.6,3.8-58.9,6.5-66.1l.9-3.1c-14.5,3.1-29.2,5.9-40.1,7.3-6.6.8-40.7,4.6-39.5,4.5,0,0,2.5,3-5.4,3.9-7.9.9-83.6,8.3-96.8,9.9-13.2,1.7-26.6,2.4-30.6,3.1,0,0-5.7,8.1-8.1,18.2-2.4,10.1-2.8,21.9-.6,30.9,0,0,.7,4.5,2.3,9.1,0,0,27.6,2.5,51.5,5.1,0,0,42.8,5.4,68.7,5.3l13.1-.6s2.1,2.3,2.1,3.9.7,4.5-4.5,4.1c-5.2-.4-47.5-3.6-126.5-11.5,0,0-1.4-.4-.7,1l.9,1.1,1.1,2c56.3,9,144.6,22.7,164.6,26.6,12.9,2.5,31.3,6.9,50,11,0,0-7.7-32.2-9-66Z"/>
    <path class="st19" d="M190.1,230s.4-6.2,2.8-9.7l1.1-1.7c-8.4,1.4-15.7,3.7-21.3,6.9-.4.2-.8.5-1.1.7-.2.3-6.4,10.5-5.4,24.3,0,0,2,16,3.9,18.4l1.9,2.7c.4.2.8.4,1.2.6,4.8,2.3,10.9,4.1,18.5,5.5.6.1,1.3.2,2.1.4,0,0-9.7-16.4-3.6-48Z"/>
    <path class="st10" d="M171.9,271.5c-10.8-5.7-14.2-14-13.4-25.2.6-8.7,5.2-15.4,13-20.2,0,0-6.4,10.3-5.4,24.3,0,0,2,16,3.9,18.4l1.9,2.7Z"/>
  </g>
  <path class="st12" d="M925.8,250.3c.9,0,1.8,0,2.7,0,0,0,101.3,1.5,222.5,1.5.7,0,1.4-.6,1.5-1.3.4-4.2,1.5-18.3-1.7-34.9,0-.4-.3-.7-.6-.9-6-3.9-64-38.8-194.4-1-1.7.5-3.4,1-5.2,1.5-2.7.8-9.2,3.2-12.2,4.4-2.5,1-6.4,2.2-12.1,3.4s-1.2.9-1.1,1.6c.6,4.1,2.2,16.7,1.1,24.1,0,.1,0,.2,0,.3l-.4,1.2Z"/>
  <path class="st11" d="M577.3,245.9c-24.2-1-46.8-2.1-46.8-2.1-18.9-1.2-58.2-3.6-83.6-5.2-2.1-.1-4.1-.3-6-.4-10.6-.6-17.6-1.1-17.6-1.1-110.1-4.9-240,2.6-255.6,3.5-.8,0-1.6-.6-1.5-1.5.2-13,7-12.5,7-12.5,62.7-3,240.9-14.4,269.8-16.2,2.6-.2,4.2-.3,4.4-.3s0,0,0,0c60.6-7.4,104.5-5.3,132-1.7.8.1,1.4.9,1.2,1.7-.7,4.3-2.9,17.7-3.5,34.3v1.3Z"/>
  <path class="st5" d="M925.8,250.3c-46.6-1.4-158.4-2.3-158.4-2.3-53.3.9-146.5-.5-146.5-.5-10.7-.4-27-1.1-42-1.7s-1-.3-1.2-.8h0c-.1-.2-.2-.5-.2-.7.8-17.9,2.8-30.1,3.5-34.1s.9-1.3,1.6-1.2c19.4,2.8,30.6,6.1,31.5,6.4s0,0,.1,0c80.8,17,138.6,12.7,224.4,13.7,43.6.5,69.7-2.5,84.8-5.4s1.6.4,1.7,1.2c.6,3.8,2.1,14.3,1,24.2,0,.1,0,.3-.1.4l-.3.8Z"/>
  <g>
    <path class="st2" d="M194.7,222c-3.3.3-13.2,1.3-13.2,5.6,0,4.9,7,4.5,10.2,4.2,4.9-.6,12.3-2,15.8-5.9s.3-4.9-3.3-5.1-6.6.5-9.5,1.2Z"/>
    <path class="st2" d="M194.1,273.4c-3.5,0-13.9-.3-14.3-4.5-.5-4.9,6.9-5,10.3-4.9,5.2.2,13.1,1,17.1,4.5,3.1,2.8.8,4.8-3,5.3s-6.9,0-10-.4Z"/>
    <path class="st9" d="M225.9,220.2c-2.7,2.8.6,5.7,3.4,6.2s16.3-.4,15.5-4.7c-1-5.6-15.9-4.6-18.9-1.5Z"/>
    <path class="st9" d="M261.9,218.6c-2.8.6-18.4-.6-13.4,5.3s15,3.6,19.2.6-3-5.5-5.7-5.9Z"/>
    <path class="st9" d="M226.2,277.1c2,0,22,2.9,16.3-4.4s-15-2.2-18-.6-2.1,5.3,1.7,5Z"/>
    <path class="st9" d="M266,273.4c-1.4-1.3-4.6-1.7-5.9-2-3.5-.6-13-2.3-14.7,2.1-1.5,3.9,11.5,5.1,14.2,4.7,1.8-.3,7.7-.7,7.1-3.8s-.3-.7-.6-1Z"/>
    <path class="st2" d="M311.2,213.7c-3.9-.4-8.2-.2-12,0s-10.3,2.9-6.9,4.9c3.8,2.3,9.6,2.8,13.9,2.6s3.5-.5,5.3-2.5,3.6-4.3,2.1-4.6c-.8-.2-1.6-.3-2.5-.4Z"/>
    <path class="st2" d="M319.2,267.5c-4.1,0-8.2,0-12.3.3s-5.1-.1-6.2,1.1c-2,2.1.7,4.6,2.6,5.4,3.6,1.7,15.1,2.2,18.8-.3s.6-5.2-2.8-6.6Z"/>
    <path class="st9" d="M364.8,219.6c-11.9-4-28.2-7.5-41.9-5.5s-10.2,4.8-5.1,9.2c6.5,5.7,21.1,3.5,29.2,3.2s7.7-1.8,11.5-2.6,8.1,0,6.2-4.2Z"/>
    <path class="st9" d="M310.6,283c8.7,2.8,19.8,3.3,28.9,3.8s21,.6,13.5-8.1c-7.7-8.8-19.7-4.5-29.5-3.6-3.8.3-7.8.3-11.3,1.8s-7.1,4.5-1.7,6.2Z"/>
    <path class="st9" d="M393.4,246.7c-5.1.5-11.9,1.2-16.1,4.3-4.1,2.9-2.2,6.2,1.7,8.1,5.8,2.8,11.3,3.3,17.8,3s12-1.2,17.6-3.4,6.8-1.4,7.2-4.4c.4-2.6-3-2.7-4.8-3-7.9-1.3-15.2-5.4-23.4-4.6Z"/>
    <path class="st2" d="M384.7,278.3c.7,4.7,10.4,4.5,13.6,4.9s14.1,1.8,17.3-2c8.3-9.9-32.1-11.2-30.9-2.9Z"/>
    <path class="st2" d="M414.1,219.7c5.3.4,9.8-.5,15.4-2.3,2.9-.9,7-1,7.5-4.5,1.2-9.5-40.9-4-39,2.4,1.3,4.2,9.9,3.4,13.1,4s2,.3,3,.4Z"/>
    <path class="st6" d="M488.1,221.5c-5.7-3.3-15-5.7-17.2-6.1-5.3-1.2-9.7,1.3-12.3,5.9-6.6,11.5,21,10.8,26.8,9.8s6.3-1.2,7.1-3.3c.8-2.3-1.2-4.4-4.3-6.3Z"/>
    <path class="st0" d="M462.1,285.6c-2.8.8-24,1.3-20.7-6.2.9-2.2,4.8-1.8,6.7-2.6,2.8-1.2,5.1-4.2,8.6-2.7,3.2,1.4,13.2,9.4,5.4,11.5Z"/>
    <path class="st9" d="M504.2,192.9c-5.3,0-14.6-1.6-18.2,3.3s-1.9,7.6,1.7,9.4,6.6-1.1,10.1-2.9,7,0,9.3-3.1-.9-7.2-2.9-6.7Z"/>
    <path class="st9" d="M507.5,212.4c5-7.4-2.6-13.6-9.5-9.5s-3.5,2.1-4.9,3.3c-6.4,5.3,9.9,12.9,14.4,6.3Z"/>
    <path class="st9" d="M494.9,258.9c2.3,2.4,4.3,5.5,7.4,6.7,2.8,1.1,8.2,5.7,4.2,8.9s-12.6-1.7-14.6-5-1.4-4.9-2.9-6.8c-1.4-1.9-5.2-4-2.4-6.4s5.5,0,7,1.4c.4.4.8.8,1.2,1.2Z"/>
    <path class="st9" d="M484.3,277.7c-8.4,0-2.8,10,0,12.7s6.7,4.8,9.7,3.6,0-4.4,1.4-6.7,7.3-.4,7.5-4.6-5.9-4.9-8.5-5.8c-3.7-1.2-7.6-.6-10.1.7Z"/>
    <path class="st6" d="M505.8,307.3c-1.8-6.4-9.8-9.2-15.8-9.2s-14.8-.4-18.3,4c-3.2,4.1,2.7,6.1,5.7,7.1,4.7,1.6,9.1,4.8,13.9,5.9,6.9,1.6,17.2,2,14.5-7.8Z"/>
    <path class="st9" d="M531.3,178.6c-5.4,1-6.2,5.5-5.1,10.1s4.2,12.5,7.4,13.9c9.2,4.2,13.3-13.7,9-19.5s-8.1-4.9-11.3-4.6Z"/>
    <path class="st0" d="M570.5,212.1c6.2,4.8,10.8-5,10.6-10-.2-5.7-6.5-7.5-11.1-5.5s-4.3,11.8.5,15.5Z"/>
    <path class="st0" d="M631,220.3c-4.8-4.3-36.8-1.8-27.8,7.5s19.9,3.8,28.1,1.6c1.7-.5,3.6-.5,4.8-2,3.2-4.2-5-7.2-7.7-8.4"/>
    <path class="st9" d="M523.9,253.6c.6,12.3,21.5,11.7,29.5,7.7,7.4-3.8,2.2-10.5-2.4-13.8-6.5-4.8-27.7-6.3-27.2,6.2Z"/>
    <path class="st0" d="M628.6,274.5c-3.3-2.6-17.1-1.9-17.6,3.7s12.7,7.7,15.9,5.9,4.8-6.8,1.6-9.7Z"/>
    <path class="st0" d="M557.8,284.5c-2.2,3.7,1.2,7.4,4.3,8.9,5.7,2.7,19.3.8,15.5-8.6-2.7-6.6-16.5-5.7-19.8-.2Z"/>
    <path class="st0" d="M547.4,276.8c-3.4-1.3-8-1.2-11.4-.5s-7.8.5-9.8,2.5c-4.5,4.6,3.6,6.1,6.5,6.4,5.2.5,11,1.9,16-.5,4.5-2.2,2.8-6.3-1.3-7.9Z"/>
    <path class="st9" d="M551.1,325.5c-7.3,6.8-22.2,5.2-26.7-3.9-3.4-6.8,9.3-13.1,15.1-11.6s5.3,3.7,8.3,6.9,7.7,4.5,3.3,8.6Z"/>
    <path class="st0" d="M545.2,292.7c-4-2.9-9-2.6-13.7-2.5s-9.8-.7-11.8,3.1c-3.5,6.4,10,8.7,13.6,9.1s21.7-1.9,12.4-9.3c-.2-.1-.3-.3-.5-.4Z"/>
    <path class="st0" d="M562.1,190.1c-2.4-1.6-6.2-1.4-9,1.4-3.6,3.6-2.9,5.9,0,9.4s3.6,5.6,6.3,4.3,4-6,4.6-7.7c1.2-3.5.1-6.1-1.9-7.5Z"/>
    <path class="st6" d="M936.2,230.4c-3.7-4.8-10.9-5-16.6-5.2s-11.2-.7-15.3,2.3c-.9,4.6,8.8,4.7,11.8,5.5s5.9,1.5,3.8,3.9c-1.5,1.6-6.2,1.1-8.2,1-3.5-.2-12.8-.4-7.7,5.4,2.5,2.9,8.2,3.9,11.8,4.4,6.8,1,15.8-1,19.7-7,2.4-3.7,1.6-9.2-1.3-12.2"/>
    <path class="st6" d="M923.8,274.6c-3.6-.3-7.6.6-11.2.8-2.2,0-8.7-.9-10.6.7-4.8,4,8.5,9.1,10.3,9.9,6.3,2.4,10.7,4.2,17.2.9,4-2.1,4-5.8,1.2-8.9-2-2.2-4.4-3.1-7-3.3Z"/>
    <path class="st9" d="M980.7,197.9c-2.2-2-4.9-3.2-7.1-5.2-2.3-2.2-3.8-2.6-7.2-2.5-5.3.2-15.9-1-18.7,4.7-2.1,4.4,2.6,8.9,6.2,11.6s11.3,2.1,16.1.6,16.8-6.1,10.6-9.1Z"/>
    <path class="st9" d="M971,261.9c-4.7-4.1-5.6-6.9-12.4-6.3s-9.1.8-13.6,1.4-8.5,1.5-6.3,6.8c1,2.6,2.9,4.2,4.7,6.2,4,4.3,6.1,4.2,11.6,3s21.4-5.5,16-11.1Z"/>
    <path class="st3" d="M1003.2,233.3c0,0,0-.1,0-.2-2.6-4.2-8.2-7.2-13.1-5.8-2.5.7-4.7,1.4-7.2,1.6s-5.4-.6-7.6.6c-5.5,3.1.1,10.3,3,13s4.5,4.6,8.4,4.6,6.1-1.3,9.2-2.9c5.4-2.7,11.4-4.1,7.3-11Z"/>
    <path class="st0" d="M999.8,184.7c3.3,2.6,8.2,4.3,11.7,3.3,2.4-.7,3.4-5.1,3.9-7.6,1.6-7-10.4-7.2-14.5-5.8-6.8,2.3-5.2,6.9-1.2,10.1Z"/>
    <path class="st9" d="M1045.4,173.2c-4.7-3.6-11.7-4.6-17.4-3.5-3,.6-10.2,3-9.7,7,.6,4.6,12.4,5.6,15.5,7,4.6,2.1,10.5,3.6,14.9.5,4.6-3.3,0-8.5-3.1-10.9s-.1-.1-.2-.2Z"/>
    <path class="st0" d="M1017.7,216c-3.9-3.3-20.4-2.8-17,5.3s12.7,7.6,17.6,3.5c2.4-2,3.2-7-.5-8.8Z"/>
    <path class="st9" d="M983.2,304.4c-3.1-3.4-7.6-5-12.1-5.2s-13.1-1.1-15.7,3.8.5,8.5,4.6,10.9c6.9,4.1,12,2.2,19,.3,5.7-1.5,8.7-5.5,4.2-9.9Z"/>
    <path class="st0" d="M993.6,288.1c-4.2-.7-9-.3-11,.5-3.7,1.5-5,4.8-1.8,7.9,3.6,3.5,16.3,4.6,19.2-.6,2.6-4.7-1.4-7-6.3-7.8Z"/>
    <path class="st9" d="M1016.4,303.5c-5.7-1.1-9,1.8-14.3,3.7-5.6,2-9.3,5.8-1.8,8.7,7,2.7,33.2,11.8,28.2-4.7-1.4-4.7-7.3-6.6-11.6-7.6s-.3,0-.5-.1Z"/>
    <path class="st9" d="M1107.1,183.1c-2.1-1.6-4.7-2.9-6.2-4.8-1.8-2.2-1.5-4.4-4.8-3.7s-3.7,1.8-6.6,1.7-5.1-.9-7.2,2.2c-9.8,14.8,11.4,19,21.6,15.6,3.4-1.1,7.9-2.5,6.5-7-.5-1.7-1.8-2.9-3.3-4Z"/>
    <path class="st0" d="M1110.2,235.5c4,2.4,16.3,3.2,20-.4,4.7-4.6-5.4-6.8-8.6-7-3.1-.2-19.1,2.8-11.4,7.4Z"/>
    <path class="st6" d="M1100.1,239.4c-7.8,2.1,1.8,7.2,5.9,8.8,6.2,2.4,14,5.8,20.7,3.4,5.5-2,4.9-6.4,1.3-10.1s-8.5-2.6-13-2.6c-4.7,0-9.6-.6-14.2.4s-.5.1-.7.2Z"/>
    <path class="st9" d="M1080.5,308.2c-3.5-3.5-12.6-9.4-17.3-6.9-3.1,1.7-6.9,6.3-6.8,9.9.2,5.3,3.8,8.3,8.8,8.8s9.7,2,14-.3c5-2.6,5-7.3,1.3-11.4Z"/>
    <path class="st3" d="M1099.7,310.4c-2.2,0-4.3.3-5.8.8-5.7,2-9.3,8.2-2.4,11.5,4.8,2.3,19.3.7,16.9-7.9-.9-3.3-5-4.4-8.8-4.5Z"/>
    <path class="st9" d="M1140.4,279.8c-.7,1.4-1,3.5-2,5.4-1.4,2.6-4.6,4.5-4.2,7.8,1.3,8.4,20.3,1.4,16.3-10-.8-2.3-2.4-4.7-4.9-5.1-3.2-.6-4.4.4-5.2,2Z"/>
    <ellipse class="st13" cx="192.6" cy="227.3" rx="4.3" ry="1.9"/>
    <ellipse class="st13" cx="194.1" cy="268.8" rx="4.3" ry="1.9"/>
    <ellipse class="st13" cx="233.9" cy="222.6" rx="4.3" ry="1.9"/>
    <ellipse class="st13" cx="230.4" cy="274.4" rx="4.3" ry="1.9"/>
    <ellipse class="st13" cx="258.8" cy="222.4" rx="4.3" ry="1.9"/>
    <ellipse class="st13" cx="254.6" cy="274.6" rx="4.3" ry="1.9"/>
    <ellipse class="st13" cx="332.1" cy="219.6" rx="4.3" ry="1.9"/>
    <ellipse class="st13" cx="334.7" cy="281.6" rx="4.3" ry="1.9"/>
    <ellipse class="st13" cx="399.1" cy="254.1" rx="4.3" ry="1.9"/>
    <ellipse class="st13" cx="406.6" cy="278.7" rx="4.3" ry="1.9"/>
    <ellipse class="st13" cx="419.1" cy="215.5" rx="4.3" ry="1.9"/>
    <ellipse class="st13" cx="476.4" cy="223.9" rx="4.3" ry="1.9"/>
    <ellipse class="st13" cx="496.5" cy="197.9" rx="4.3" ry="1.9"/>
    <ellipse class="st13" cx="500.2" cy="209.9" rx="4.3" ry="1.9"/>
    <ellipse class="st13" cx="488.2" cy="304.8" rx="4.3" ry="1.9"/>
    <ellipse class="st13" cx="492.9" cy="283.6" rx="4.3" ry="1.9"/>
    <ellipse class="st13" cx="497.5" cy="269.2" rx="4.3" ry="1.9"/>
    <ellipse class="st13" cx="542.4" cy="253.2" rx="4.3" ry="1.9"/>
    <ellipse class="st13" cx="536.6" cy="189.7" rx="4.3" ry="1.9"/>
    <ellipse class="st13" cx="543.3" cy="280.6" rx="4.3" ry="1.9"/>
    <ellipse class="st13" cx="538.8" cy="320.2" rx="4.3" ry="1.9"/>
    <ellipse class="st13" cx="922.5" cy="241.4" rx="4.3" ry="1.9"/>
    <ellipse class="st13" cx="925.1" cy="231.1" rx="4.3" ry="1.9"/>
    <ellipse class="st13" cx="919.9" cy="280.6" rx="4.3" ry="1.9"/>
    <ellipse class="st13" cx="965.1" cy="198.4" rx="4.3" ry="1.9"/>
    <ellipse class="st13" cx="989.9" cy="236.5" rx="4.3" ry="1.9"/>
    <ellipse class="st13" cx="1034.9" cy="176" rx="4.3" ry="1.9"/>
    <ellipse class="st13" cx="956.3" cy="263.7" rx="4.3" ry="1.9"/>
    <ellipse class="st13" cx="971.5" cy="304.4" rx="4.3" ry="1.9"/>
    <ellipse class="st13" cx="1012.4" cy="310.8" rx="4.3" ry="1.9"/>
    <ellipse class="st13" cx="1098.5" cy="185.4" rx="4.3" ry="1.9"/>
    <ellipse class="st13" cx="1118.3" cy="244.4" rx="4.3" ry="1.9"/>
    <ellipse class="st13" cx="1070" cy="311.8" rx="4.3" ry="1.9"/>
    <ellipse class="st13" cx="1098.4" cy="316.8" rx="4.3" ry="1.9"/>
    <ellipse class="st13" cx="1142.4" cy="290.3" rx="4.3" ry="1.9"/>
  </g>
  <g>
    <path class="st2" d="M322.7,654.2c-4.1,0-8.2,0-12.3.3s-5.1-.1-6.2,1.1c-2,2.1.7,4.6,2.6,5.4,3.6,1.7,15.1,2.2,18.8-.3s.6-5.2-2.8-6.6Z"/>
    <path class="st2" d="M184.7,656.4c-3.5,0-13.9-.3-14.3-4.5s6.9-5,10.3-4.9c5.2.2,13.1,1,17.1,4.5,3.1,2.8.8,4.8-3,5.3s-6.9,0-10-.4Z"/>
    <path class="st9" d="M226.7,667c2,0,22,2.9,16.3-4.4-2.4-3.1-15-2.2-18-.6s-2.1,5.3,1.7,5Z"/>
    <path class="st9" d="M266.5,663.3c-1.4-1.3-4.6-1.7-5.9-2-3.5-.6-13-2.3-14.7,2.1-1.5,3.9,11.5,5.1,14.2,4.7,1.8-.3,7.7-.7,7.1-3.8s-.3-.7-.6-1Z"/>
    <path class="st9" d="M314.1,669.7c8.7,2.8,19.8,3.3,28.9,3.8,4.8.2,21,.6,13.5-8.1-7.7-8.8-19.7-4.5-29.5-3.6-3.8.3-7.8.3-11.3,1.8s-7.1,4.5-1.7,6.2Z"/>
    <path class="st9" d="M403.6,634c-5.7-2.7-13.6-5.3-20-4.6-5.1.5-11.9,1.2-16.1,4.3-4.1,2.9-2.2,6.2,1.7,8.1,5.8,2.8,11.3,3.3,17.8,3,6.1-.2,12-1.2,17.6-3.4s6.8-1.4,7.2-4.4-8.6-2.4-11.1-3.9"/>
    <path class="st2" d="M374.9,660.1c.7,4.7,10.4,4.5,13.6,4.9s14.1,1.8,17.3-2c8.3-9.9-32.1-11.2-30.9-2.9Z"/>
    <path class="st6" d="M478.9,613.2c-5.7-3.3-15-5.7-17.2-6.1-5.3-1.2-9.7,1.3-12.3,5.9-6.6,11.5,21,10.8,26.8,9.8s6.3-1.2,7.1-3.3c.8-2.3-1.2-4.4-4.3-6.3Z"/>
    <path class="st0" d="M451.5,668.4c-2.8.8-24,1.3-20.7-6.2.9-2.2,4.8-1.8,6.7-2.6,2.8-1.2,5.1-4.2,8.6-2.7,3.2,1.4,13.2,9.4,5.4,11.5Z"/>
    <path class="st9" d="M482.9,647.7c2.3,2.4,4.3,5.5,7.4,6.7,2.8,1.1,8.2,5.7,4.2,8.9s-12.6-1.7-14.6-5-1.4-4.9-2.9-6.8c-1.4-1.9-5.2-4-2.4-6.4s5.5,0,7,1.4c.4.4.8.8,1.2,1.2Z"/>
    <path class="st9" d="M472.6,663.6c-8.4,0-2.8,10,0,12.7s6.7,4.8,9.7,3.6,0-4.4,1.4-6.7,7.3-.4,7.5-4.6-5.9-4.9-8.5-5.8c-3.7-1.2-7.6-.6-10.1.7Z"/>
    <path class="st9" d="M516.1,565.1c-5.4,1-6.2,5.5-5.1,10.1s4.2,12.5,7.4,13.9c9.2,4.2,13.3-13.7,9-19.5-2.6-3.5-8.1-4.9-11.3-4.6Z"/>
    <path class="st9" d="M514.5,636.4c.6,12.3,21.5,11.7,29.5,7.7,7.4-3.8,2.2-10.5-2.4-13.8-6.5-4.8-27.7-6.3-27.2,6.2Z"/>
    <path class="st0" d="M618.4,657.3c-3.3-2.6-17.1-1.9-17.6,3.7-.3,4.7,12.7,7.7,15.9,5.9s4.8-6.8,1.6-9.7Z"/>
    <path class="st0" d="M547.6,668.8c-2.2,3.7,1.2,7.4,4.3,8.9,5.7,2.7,19.3.8,15.5-8.6-2.7-6.6-16.5-5.7-19.8-.2Z"/>
    <path class="st0" d="M536.2,661c-3.4-1.3-8-1.2-11.4-.5-2.5.5-7.8.5-9.8,2.5-4.5,4.6,3.6,6.1,6.5,6.4,5.2.5,11,1.9,16-.5,4.5-2.2,2.8-6.3-1.3-7.9Z"/>
    <path class="st9" d="M539.8,709.8c-7.3,6.8-22.2,5.2-26.7-3.9-3.4-6.8,9.3-13.1,15.1-11.6s5.3,3.7,8.3,6.9,7.7,4.5,3.3,8.6Z"/>
    <path class="st0" d="M534,676.9c-4-2.9-9-2.6-13.7-2.5s-9.8-.7-11.8,3.1c-3.5,6.4,10,8.7,13.6,9.1s21.7-1.9,12.4-9.3c-.2-.1-.3-.3-.5-.4Z"/>
    <path class="st6" d="M934.3,621.3c-3.7-4.8-10.9-5-16.6-5.2s-11.2-.7-15.3,2.3c-.9,4.6,8.8,4.7,11.8,5.5s5.9,1.5,3.8,3.9c-1.5,1.6-6.2,1.1-8.2,1-3.5-.2-12.8-.4-7.7,5.4,2.5,2.9,8.2,3.9,11.8,4.4,6.8,1,15.8-1,19.7-7,2.4-3.7,1.6-9.2-1.3-12.2"/>
    <path class="st9" d="M968.3,592.7c-2.2-2-4.9-3.2-7.1-5.2s-3.8-2.6-7.2-2.5c-5.3.2-15.9-1-18.7,4.7-2.1,4.4,2.6,8.9,6.2,11.6s11.3,2.1,16.1.6,16.8-6.1,10.6-9.1Z"/>
    <path class="st9" d="M970.4,647.1c-4.7-4.1-5.6-6.9-12.4-6.3s-9.1.8-13.6,1.4-8.5,1.5-6.3,6.8c1,2.6,2.9,4.2,4.7,6.2,4,4.3,6.1,4.2,11.6,3s21.4-5.5,16-11.1Z"/>
    <path class="st3" d="M994.4,616.3c0,0,0-.1,0-.2-2.6-4.2-8.2-7.2-13.1-5.8-2.5.7-4.7,1.4-7.2,1.6s-5.4-.6-7.6.6c-5.5,3.1.1,10.3,3,13,2.7,2.6,4.5,4.6,8.4,4.6s6.1-1.3,9.2-2.9c5.4-2.7,11.4-4.1,7.3-11Z"/>
    <path class="st0" d="M1028.7,720.7c3.3,2.6,8.2,4.3,11.7,3.3,2.4-.7,3.4-5.1,3.9-7.6,1.6-7-10.4-7.2-14.5-5.8-6.8,2.3-5.2,6.9-1.2,10.1Z"/>
    <path class="st6" d="M1083.2,710.9c-4.7-4-11.7-5.1-17.4-3.8-3,.7-10.2,3.3-9.7,7.7.6,5.1,12.4,6.1,15.5,7.7,4.6,2.3,10.5,4,14.9.5,4.6-3.6,0-9.3-3.1-11.9,0,0-.1-.1-.2-.2Z"/>
    <path class="st0" d="M1011.9,604.2c-3.9-3.3-20.4-2.8-17,5.3,2.6,6.3,12.7,7.6,17.6,3.5,2.4-2,3.2-7-.5-8.8Z"/>
    <path class="st9" d="M992.3,675.2c-3.1-3.4-7.6-5-12.1-5.2-4.9-.3-13.1-1.1-15.7,3.8-2.5,4.7.5,8.5,4.6,10.9,6.9,4.1,12,2.2,19,.3s8.7-5.5,4.2-9.9Z"/>
    <path class="st0" d="M1002.6,658.9c-4.2-.7-9-.3-11,.5-3.7,1.5-5,4.8-1.8,7.9s16.3,4.6,19.2-.6c2.6-4.7-1.4-7-6.3-7.8Z"/>
    <path class="st9" d="M1025.5,674.4c-5.7-1.1-9,1.8-14.3,3.7-5.6,2-9.3,5.8-1.8,8.7s33.2,11.8,28.2-4.7c-1.4-4.7-7.3-6.6-11.6-7.6s-.3,0-.5-.1Z"/>
    <path class="st6" d="M1096.6,602.6c-5.3-4-10.9-10.8-18.4-7.9-7,2.7-12.4,11.5-5.2,16.8,5.3,3.9,14.3,4.2,20.4,2.2,3.4-1.1,7.9-2.5,6.5-7-.5-1.7-1.8-2.9-3.3-4Z"/>
    <path class="st3" d="M1096,591.5c-4.6,7.7,15.1,9.5,19.6,7.9,5.5-2,4.9-6.4,1.3-10.1-4.6-4.7-16.2-3.7-20.3,1.4-.2.3-.4.6-.6.9Z"/>
    <path class="st9" d="M1106.2,679.7c-3.5-4.2-12.6-11.5-17.3-8.5s-6.9,7.7-6.8,12.1c.2,6.5,3.8,10.2,8.8,10.7s9.7,2.4,14-.4c5-3.2,5-8.9,1.3-13.9Z"/>
    <path class="st3" d="M1125.5,682.4c-2.2,0-4.3.4-5.8,1-5.7,2.4-9.3,10.1-2.4,14.1,4.8,2.8,19.3.8,16.9-9.7-.9-4-5-5.4-8.8-5.5Z"/>
    <ellipse class="st13" cx="184.7" cy="651.8" rx="4.3" ry="1.9"/>
    <ellipse class="st13" cx="230.9" cy="664.3" rx="4.3" ry="1.9"/>
    <ellipse class="st13" cx="255.1" cy="664.5" rx="4.3" ry="1.9"/>
    <ellipse class="st13" cx="338.1" cy="668.4" rx="4.3" ry="1.9"/>
    <ellipse class="st13" cx="389.2" cy="636.8" rx="4.3" ry="1.9"/>
    <ellipse class="st13" cx="396.8" cy="660.6" rx="4.3" ry="1.9"/>
    <ellipse class="st13" cx="467.1" cy="615.6" rx="4.3" ry="1.9"/>
    <ellipse class="st13" cx="481.2" cy="669.4" rx="4.3" ry="1.9"/>
    <ellipse class="st13" cx="485.5" cy="658" rx="4.3" ry="1.9"/>
    <ellipse class="st13" cx="532.9" cy="636" rx="4.3" ry="1.9"/>
    <ellipse class="st13" cx="521.4" cy="576.2" rx="4.3" ry="1.9"/>
    <ellipse class="st13" cx="532.1" cy="664.8" rx="4.3" ry="1.9"/>
    <ellipse class="st13" cx="527.6" cy="704.5" rx="4.3" ry="1.9"/>
    <ellipse class="st13" cx="920.5" cy="632.3" rx="4.3" ry="1.9"/>
    <ellipse class="st13" cx="923.1" cy="621.9" rx="4.3" ry="1.9"/>
    <ellipse class="st13" cx="952.8" cy="593.2" rx="4.3" ry="1.9"/>
    <ellipse class="st13" cx="981.1" cy="619.5" rx="4.3" ry="1.9"/>
    <ellipse class="st14" cx="1072.7" cy="714.1" rx="4.3" ry="2.1"/>
    <ellipse class="st13" cx="955.7" cy="648.9" rx="4.3" ry="1.9"/>
    <ellipse class="st13" cx="980.5" cy="675.3" rx="4.3" ry="1.9"/>
    <ellipse class="st13" cx="1021.4" cy="681.6" rx="4.3" ry="1.9"/>
    <ellipse class="st13" cx="1088" cy="604.9" rx="4.3" ry="1.9"/>
    <ellipse class="st13" cx="1107.2" cy="592.2" rx="4.3" ry="1.9"/>
    <ellipse class="st13" cx="1095.8" cy="687" rx="4.3" ry="1.9"/>
    <ellipse class="st16" cx="1124.2" cy="690.4" rx="4.3" ry="2.3"/>
    <path class="st9" d="M361.4,611c-5.6-.5-13.3-1.2-17.9-4.2-4.5-2.9-2.5-6.2,1.9-8,6.5-2.8,12.6-3.2,19.8-3s13.4,1.2,19.6,3.4c2.5.9,7.5,1.4,8,4.4.9,5.3-28.8,7.7-31.4,7.5Z"/>
    <ellipse class="st15" cx="367.7" cy="603.6" rx="4.7" ry="1.9"/>
  </g>
  <text class="st17" transform="translate(81.8 334.7)"><tspan x="0" y="0">e2DL</tspan></text>
  <text class="st17" transform="translate(93.9 158.9)"><tspan x="0" y="0">e2DR</tspan></text>
  <text class="st17" transform="translate(172 136.2)"><tspan x="0" y="0">pm2DL/DR</tspan></text>
  <text class="st17" transform="translate(278.8 152.9)"><tspan x="0" y="0">e1D</tspan></text>
  <text class="st17" transform="translate(308.4 120)"><tspan x="0" y="0">pm3DL</tspan></text>
  <text class="st17" transform="translate(363.2 143.7)"><tspan x="0" y="0">pm3L</tspan></text>
  <text class="st17" transform="translate(415 117.7)"><tspan x="0" y="0">e3D</tspan></text>
  <text class="st17" transform="translate(448.3 142)"><tspan x="0" y="0">mc1DL</tspan></text>
  <text class="st17" transform="translate(491.5 96.5)"><tspan x="0" y="0">pm1DL/DR</tspan></text>
  <text class="st17" transform="translate(583.4 121.2)"><tspan x="0" y="0">pm4DL</tspan></text>
  <text class="st17" transform="translate(662.6 147)"><tspan x="0" y="0">MI</tspan></text>
  <text class="st17" transform="translate(709.1 152.8)"><tspan x="0" y="0">I3</tspan></text>
  <text class="st17" transform="translate(753.4 165.2)"><tspan x="0" y="0">M4</tspan></text>
  <text class="st17" transform="translate(112.1 366.2)"><tspan x="0" y="0">pm2L/VL</tspan></text>
  <text class="st17" transform="translate(217.9 353.7)"><tspan x="0" y="0">e1VL</tspan></text>
  <text class="st17" transform="translate(262.1 393.1)"><tspan x="0" y="0">pm3VL</tspan></text>
  <text class="st17" transform="translate(321.9 365)"><tspan x="0" y="0">e3VL</tspan></text>
  <text class="st17" transform="translate(387 356.2)"><tspan x="0" y="0">I1L</tspan></text>
  <text class="st17" transform="translate(366.6 405.3)"><tspan x="0" y="0">pm1L/VL</tspan></text>
  <text class="st17" transform="translate(444.6 379.2)"><tspan x="0" y="0">mc1V</tspan></text>
  <text class="st17" transform="translate(591.3 409.2)"><tspan x="0" y="0">I2L</tspan></text>
  <text class="st17" transform="translate(493.3 407.6)"><tspan x="0" y="0">pm4VL</tspan></text>
  <text class="st17" transform="translate(630.8 391.6)"><tspan x="0" y="0">MCL</tspan></text>
  <text class="st17" transform="translate(660.1 363.1)"><tspan x="0" y="0">NSML</tspan></text>
  <text class="st17" transform="translate(692.3 338.9)"><tspan x="0" y="0">pm4L</tspan></text>
  <text class="st17" transform="translate(701.3 282.1)"><tspan x="0" y="0">M3L</tspan></text>
  <text class="st17" transform="translate(801.6 132)"><tspan x="0" y="0">mc2DL</tspan></text>
  <text class="st17" transform="translate(875.4 150.4)"><tspan x="0" y="0">pm5L</tspan></text>
  <text class="st17" transform="translate(868.5 83.5)"><tspan x="0" y="0">pm5DL</tspan></text>
  <text class="st17" transform="translate(960.4 102)"><tspan x="0" y="0">g1AL</tspan></text>
  <text class="st17" transform="translate(1028.8 110.8)"><tspan x="0" y="0">I4</tspan></text>
  <text class="st17" transform="translate(1060.6 95.2)"><tspan x="0" y="0">pm6D</tspan></text>
  <text class="st17" transform="translate(1051 216)"><tspan x="0" y="0">I6</tspan></text>
  <text class="st17" transform="translate(1134.8 125.3)"><tspan x="0" y="0">pm7D</tspan></text>
  <text class="st17" transform="translate(1203.6 164.4)"><tspan x="0" y="0">M5</tspan></text>
  <text class="st17" transform="translate(1223.9 221.4)"><tspan x="0" y="0">mc3DL</tspan></text>
  <text class="st17" transform="translate(1219.8 306.3)"><tspan x="0" y="0">pm8</tspan></text>
  <text class="st17" transform="translate(1157.3 377.1)"><tspan x="0" y="0">g2L</tspan></text>
  <text class="st17" transform="translate(1083.5 403.5)"><tspan x="0" y="0">pm7VL</tspan></text>
  <text class="st17" transform="translate(1011.2 429.4)"><tspan x="0" y="0">pm6VL</tspan></text>
  <text class="st17" transform="translate(957.5 412.3)"><tspan x="0" y="0">M2L</tspan></text>
  <text class="st17" transform="translate(864.1 403)"><tspan x="0" y="0">pm5VL</tspan></text>
  <text class="st17" transform="translate(808.2 376.8)"><tspan x="0" y="0">mc2V</tspan></text>
  <line class="st8" x1="125.2" y1="167" x2="183.7" y2="224.6"/>
  <line class="st8" x1="224.8" y1="143.7" x2="257.7" y2="218.6"/>
  <line class="st8" x1="235.8" y1="217.6" x2="245" y2="189.6"/>
  <line class="st8" x1="303.3" y1="213.1" x2="297.7" y2="163.2"/>
  <line class="st8" x1="337.1" y1="213.7" x2="338.1" y2="131.3"/>
  <line class="st8" x1="391.2" y1="246.6" x2="390.3" y2="152.5"/>
  <line class="st8" x1="423.5" y1="207.9" x2="431.3" y2="124.2"/>
  <line class="st8" x1="471.7" y1="215.7" x2="479.8" y2="148.3"/>
  <line class="st8" x1="508.2" y1="205" x2="541.4" y2="105.9"/>
  <line class="st8" x1="497.7" y1="192.9" x2="521.3" y2="165.7"/>
  <line class="st8" x1="543.3" y1="183.8" x2="602.3" y2="127.7"/>
  <line class="st8" x1="563.9" y1="191.6" x2="656" y2="148.9"/>
  <line class="st8" x1="580.5" y1="199.4" x2="701.6" y2="157.4"/>
  <line class="st8" x1="632.3" y1="220.9" x2="745.6" y2="168.1"/>
  <line class="st8" x1="906.7" y1="226.3" x2="839.4" y2="139.8"/>
  <line class="st8" x1="954.7" y1="256.1" x2="909.3" y2="158.4"/>
  <line class="st8" x1="961.6" y1="190.1" x2="930.8" y2="94.4"/>
  <line class="st8" x1="990.9" y1="227.3" x2="987" y2="109"/>
  <line class="st8" x1="1012.4" y1="175" x2="1034.9" y2="118.3"/>
  <line class="st8" x1="1042.2" y1="171.1" x2="1081.3" y2="102.7"/>
  <line class="st8" x1="1020.7" y1="218.5" x2="1045.6" y2="211.1"/>
  <line class="st8" x1="1099.9" y1="177.9" x2="1129.2" y2="135.4"/>
  <line class="st8" x1="1128.7" y1="229.7" x2="1196.6" y2="168.6"/>
  <line class="st8" x1="1131.1" y1="246.3" x2="1213.2" y2="218.5"/>
  <line class="st8" x1="1150.2" y1="288.8" x2="1210.3" y2="297.1"/>
  <line class="st8" x1="1155.1" y1="360.2" x2="1105.2" y2="321.6"/>
  <line class="st8" x1="1103.3" y1="382.6" x2="1073.5" y2="320.1"/>
  <line class="st8" x1="1039.8" y1="408.5" x2="1023.1" y2="320.6"/>
  <line class="st8" x1="981.1" y1="389.5" x2="989.4" y2="299.1"/>
  <line class="st8" x1="958.6" y1="312.8" x2="909.3" y2="383.1"/>
  <line class="st8" x1="908.3" y1="284.4" x2="853.6" y2="351.8"/>
  <line class="st8" x1="630.3" y1="277.9" x2="694.8" y2="274.3"/>
  <line class="st8" x1="684.1" y1="325" x2="556" y2="259.3"/>
  <line class="st8" x1="654.8" y1="345.9" x2="577" y2="292.2"/>
  <line class="st8" x1="548.2" y1="285.1" x2="627.4" y2="374.8"/>
  <line class="st8" x1="532.6" y1="328.4" x2="518.9" y2="386.5"/>
  <line class="st8" x1="588.3" y1="389.5" x2="546.9" y2="300.1"/>
  <line class="st8" x1="472" y1="360.2" x2="490.1" y2="314.7"/>
  <line class="st8" x1="412.7" y1="381.7" x2="487" y2="260.6"/>
  <line class="st8" x1="464.2" y1="298.1" x2="484.7" y2="290.9"/>
  <line class="st8" x1="446.3" y1="284.7" x2="409.8" y2="338"/>
  <line class="st8" x1="356.4" y1="344.8" x2="398" y2="283.4"/>
  <line class="st8" x1="329.8" y1="286.6" x2="299.3" y2="369.9"/>
  <line class="st8" x1="248.2" y1="329.6" x2="304.9" y2="274.6"/>
  <line class="st8" x1="252.9" y1="278.1" x2="176.9" y2="342.1"/>
  <line class="st8" x1="231.3" y1="277.9" x2="227.9" y2="298.6"/>
  <line class="st8" x1="180.8" y1="271.2" x2="130" y2="312.8"/>
  <text class="st17" transform="translate(74 722.2)"><tspan x="0" y="0">e2V</tspan></text>
  <text class="st17" transform="translate(87.6 776.1)"><tspan x="0" y="0">pm2R/VR</tspan></text>
  <text class="st17" transform="translate(203.8 752.8)"><tspan x="0" y="0">e1VR</tspan></text>
  <text class="st17" transform="translate(226.6 795.5)"><tspan x="0" y="0">pm3VR</tspan></text>
  <text class="st17" transform="translate(310.6 774)"><tspan x="0" y="0">e3VR</tspan></text>
  <text class="st17" transform="translate(378.2 782.1)"><tspan x="0" y="0">I1R</tspan></text>
  <text class="st17" transform="translate(415.9 806)"><tspan x="0" y="0">pm1R/VR</tspan></text>
  <text class="st17" transform="translate(589.5 785.2)"><tspan x="0" y="0">I2R</tspan></text>
  <text class="st17" transform="translate(525.8 818.7)"><tspan x="0" y="0">pm4VR</tspan></text>
  <text class="st17" transform="translate(660.3 797.9)"><tspan x="0" y="0">MCR</tspan></text>
  <text class="st17" transform="translate(692.8 755.2)"><tspan x="0" y="0">NSMR</tspan></text>
  <text class="st17" transform="translate(1092.6 817.8)"><tspan x="0" y="0">mc3V</tspan></text>
  <text class="st17" transform="translate(978.3 822.9)"><tspan x="0" y="0">pm6VR</tspan></text>
  <text class="st17" transform="translate(1053.9 798.8)"><tspan x="0" y="0">I5</tspan></text>
  <text class="st17" transform="translate(941.8 788.5)"><tspan x="0" y="0">M2R</tspan></text>
  <text class="st17" transform="translate(817.2 745)"><tspan x="0" y="0">pm5R</tspan></text>
  <text class="st17" transform="translate(837 534.1)"><tspan x="0" y="0">mc2V</tspan></text>
  <line class="st8" x1="1101.8" y1="797" x2="1082.1" y2="725.1"/>
  <line class="st8" x1="1007.8" y1="801" x2="1020.2" y2="690.6"/>
  <line class="st8" x1="1059.3" y1="775.6" x2="1041.1" y2="723.8"/>
  <line class="st8" x1="965.5" y1="765.7" x2="999.7" y2="670.4"/>
  <line class="st8" x1="947.9" y1="659.2" x2="878.5" y2="725.1"/>
  <line class="st8" x1="912.7" y1="615.7" x2="870.7" y2="545.3"/>
  <path class="st8" d="M566.8,672.4"/>
  <line class="st8" x1="684.6" y1="736.1" x2="567.8" y2="674.3"/>
  <line class="st8" x1="536.5" y1="669.4" x2="656.9" y2="777.2"/>
  <line class="st8" x1="530.6" y1="713.4" x2="551.4" y2="797.7"/>
  <line class="st8" x1="586.5" y1="765.5" x2="535.5" y2="684.1"/>
  <line class="st8" x1="462" y1="782.3" x2="495.1" y2="662.6"/>
  <line class="st8" x1="436.2" y1="668" x2="396.8" y2="759.6"/>
  <line class="st8" x1="345.5" y1="751.5" x2="380.6" y2="664.2"/>
  <line class="st8" x1="323.8" y1="672" x2="268.5" y2="771.3"/>
  <line class="st8" x1="252.4" y1="730.3" x2="305.2" y2="660.6"/>
  <line class="st8" x1="252.5" y1="667.8" x2="152.5" y2="752"/>
  <line class="st8" x1="173" y1="654.8" x2="115.3" y2="702.7"/>
  <line class="st8" x1="232.3" y1="667.5" x2="221.8" y2="693.9"/>
  <text class="st17" transform="translate(259.4 521.4)"><tspan x="0" y="0">pm3DR</tspan></text>
  <line class="st8" x1="348.5" y1="597.3" x2="305.9" y2="530.7"/>
  <text class="st17" transform="translate(361.1 517.5)"><tspan x="0" y="0">pm3R</tspan></text>
  <line class="st8" x1="403.6" y1="633.3" x2="390.9" y2="522.9"/>
  <text class="st17" transform="translate(426.5 495)"><tspan x="0" y="0">mc1DR</tspan></text>
  <line class="st8" x1="460.1" y1="606.9" x2="456.4" y2="500.4"/>
  <text class="st17" transform="translate(522.3 506.5)"><tspan x="0" y="0">pm4DR</tspan></text>
  <line class="st8" x1="546.7" y1="522.1" x2="552.1" y2="511.9"/>
  <line class="st8" x1="523.5" y1="566.1" x2="546.7" y2="522.1"/>
  <text class="st17" transform="translate(623.9 536.1)"><tspan x="0" y="0">pm4R</tspan></text>
  <line class="st8" x1="541.7" y1="630.5" x2="621.5" y2="543.4"/>
  <text class="st17" transform="translate(657.7 634.8)"><tspan x="0" y="0">M3R</tspan></text>
  <line class="st8" x1="617.6" y1="656.7" x2="648.9" y2="638.2"/>
  <line class="st8" x1="481.8" y1="679.4" x2="487.6" y2="690.6"/>
  <text class="st17" transform="translate(852.7 800.8)"><tspan x="0" y="0">pm5VR</tspan></text>
  <line class="st8" x1="973.6" y1="686.6" x2="921.5" y2="775"/>
  <text class="st17" transform="translate(1130.8 785.6)"><tspan x="0" y="0">pm7VR</tspan></text>
  <line class="st8" x1="1139.9" y1="764.7" x2="1104" y2="694.4"/>
  <text class="st17" transform="translate(1194.2 738.3)"><tspan x="0" y="0">g2R</tspan></text>
  <line class="st8" x1="1185.7" y1="727.7" x2="1134.1" y2="693.6"/>
  <text class="st17" transform="translate(1177.7 544.7)"><tspan x="0" y="0">g1P</tspan></text>
  <line class="st8" x1="1167.8" y1="546.3" x2="1116.5" y2="588.1"/>
  <text class="st17" transform="translate(1080.3 496.7)"><tspan x="0" y="0">mc3V</tspan></text>
  <line class="st8" x1="1082" y1="593.9" x2="1101.1" y2="508.2"/>
  <text class="st17" transform="translate(956.9 514.5)"><tspan x="0" y="0">g1AR</tspan></text>
  <line class="st8" x1="982.1" y1="522.9" x2="979.9" y2="610.8"/>
  <text class="st17" transform="translate(1025.9 477.4)"><tspan x="0" y="0">M1</tspan></text>
  <line class="st8" x1="1039" y1="485.2" x2="1009.7" y2="602.5"/>
  <text class="st17" transform="translate(894.3 489)"><tspan x="0" y="0">pm5DR</tspan></text>
  <line class="st8" x1="927.4" y1="498.4" x2="950.8" y2="584.4"/>
</svg>