<?xml version="1.0" encoding="UTF-8" standalone="no"?>
<!-- Created with Inkscape (http://www.inkscape.org/) -->

<svg
   width="800"
   height="800"
   viewBox="0 0 800 800"
   version="1.1"
   id="svg21"
   xml:space="preserve"
   inkscape:version="1.2.2 (b0a8486541, 2022-12-01)"
   sodipodi:docname="factor-analysis-viewer.svg"
   xmlns:inkscape="http://www.inkscape.org/namespaces/inkscape"
   xmlns:sodipodi="http://sodipodi.sourceforge.net/DTD/sodipodi-0.dtd"
   xmlns="http://www.w3.org/2000/svg"
   xmlns:svg="http://www.w3.org/2000/svg"><sodipodi:namedview
     id="namedview23"
     pagecolor="#ffffff"
     bordercolor="#000000"
     borderopacity="0.25"
     inkscape:showpageshadow="2"
     inkscape:pageopacity="0.0"
     inkscape:pagecheckerboard="0"
     inkscape:deskcolor="#d1d1d1"
     inkscape:document-units="in"
     showgrid="false"
     inkscape:zoom="1.1242484"
     inkscape:cx="319.7692"
     inkscape:cy="513.67653"
     inkscape:window-width="1920"
     inkscape:window-height="1022"
     inkscape:window-x="0"
     inkscape:window-y="0"
     inkscape:window-maximized="1"
     inkscape:current-layer="layer1" /><defs
     id="defs18" /><g
     inkscape:label="Layer 1"
     inkscape:groupmode="layer"
     id="layer1"><g
       id="g448"
       transform="translate(-35.267812,16.822817)"><path
         style="fill:#ee9978;stroke-width:0.934462"
         d="M 701.53537,523.01635 V 398.26562 h 62.14175 62.14174 V 523.01635 647.76709 H 763.67712 701.53537 Z M 167.02292,212.77482 v -61.20729 h 62.14174 62.14175 v 61.20729 61.20729 h -62.14175 -62.14174 z"
         id="path332" /><path
         style="fill:#67a9ce;stroke-width:0.934462"
         d="m 44.115236,336.12387 c 9.3e-5,-34.43494 0.116724,-48.38619 0.259154,-31.00277 0.14244,17.38342 0.142366,45.55747 -1.77e-4,62.60899 -0.142534,17.05152 -0.25908,2.82872 -0.258977,-31.60622 z m 266.814884,0 v -62.14176 h 61.67451 61.67451 v -61.20729 -61.20729 h 62.14175 62.14175 V 274.91658 398.26562 H 434.74638 310.93012 Z"
         id="path330"
         sodipodi:nodetypes="ssssccccccccccccc" /><path
         style="fill:#d35c4b;stroke-width:0.934462"
         d="M 43.673889,523.01635 V 398.26562 H 105.3484 167.02292 V 523.01635 647.76709 H 105.3484 43.673889 Z m 0,-310.24153 v -61.20729 h 61.674511 61.67452 v 61.20729 61.20729 H 105.3484 43.673889 Z"
         id="path328" /><path
         style="fill:#327db7;stroke-width:0.934462"
         d="m 701.53537,336.12387 v -62.14176 h 62.14175 62.14174 v 62.14176 62.14175 h -62.14174 -62.14175 z m -5.74985,6.35418 v -62.14176 h 62.14175 62.14174 v 62.14176 62.14175 h -62.14174 -62.14175 z"
         id="path326"
         sodipodi:nodetypes="ccccccccc" /><path
         style="fill:#327db7;stroke-width:0.889997"
         d="m 440.3701,332.82494 v -59.24517 h 59.12461 59.1246 v 59.24517 59.24517 h -59.1246 -59.12461 z m -5.47068,6.058 v -59.24517 h 59.12461 59.1246 v 59.24517 59.24516 h -59.1246 -59.12461 z"
         id="path326-3"
         sodipodi:nodetypes="ccccccccc" /><path
         style="fill:#8d0b23;stroke-width:0.934462"
         d="M 578.18634,523.01635 V 398.26562 h 61.67452 61.67451 V 523.01635 647.76709 H 639.86086 578.18634 Z M 310.93012,212.77482 v -61.20729 h 61.67451 61.67451 v 61.20729 61.20729 h -61.67451 -61.67451 z"
         id="path324" /><path
         style="fill:#5f021d;stroke-width:0.934462"
         d="M 310.93012,523.01635 V 398.26562 h 61.67451 61.67451 v 124.75073 124.75074 h -61.67451 -61.67451 z m -388.722027,-58.949 c 51.861271,-309.37823 25.930636,-154.68912 0,0 z M 167.02292,336.12387 v -62.14176 h 62.14174 62.14175 v 62.14176 62.14175 H 229.16466 167.02292 Z M 578.18634,212.77482 v -61.20729 h 61.67452 61.67451 v 61.20729 61.20729 h -61.67451 -61.67452 z"
         id="path322"
         sodipodi:nodetypes="ccccccccccccccccccccccccccccc" /></g><text
       xml:space="preserve"
       style="font-weight:bold;font-size:160px;font-family:'Noto Sans';-inkscape-font-specification:'Noto Sans, Bold';fill:#ff0000;fill-opacity:1;stroke:#ffff33;stroke-width:5.87717;stroke-linejoin:bevel;stroke-dasharray:none"
       x="211.74127"
       y="549.88715"
       id="text1825"><tspan
         sodipodi:role="line"
         id="tspan1823"
         style="font-style:normal;font-variant:normal;font-weight:600;font-stretch:normal;font-size:333.333px;font-family:'URW Gothic';-inkscape-font-specification:'URW Gothic, Semi-Bold';font-variant-ligatures:normal;font-variant-caps:normal;font-variant-numeric:normal;font-variant-east-asian:normal;fill:#00ff54;fill-opacity:1;stroke:#000000;stroke-width:5.87717;stroke-dasharray:none;stroke-opacity:1"
         x="211.74127"
         y="549.88715">FA</tspan></text></g></svg>
